<?xml version="1.0" encoding="UTF-8"?>
<svg xmlns="http://www.w3.org/2000/svg" width="400" height="200" viewBox="0 0 400 200">
<rect width="400" height="200" rx="12" fill="#0c1220"/>
<rect x="20" y="65" width="60" height="55" rx="6" fill="#1a0a0a" stroke="#ef4444" stroke-width="0.5"/>
<text x="50" y="88" text-anchor="middle" fill="#ef4444" font-size="10" font-weight="bold">Kafka</text>
<text x="50" y="105" text-anchor="middle" fill="#6b7d96" font-size="7">streaming</text>
<line x1="80" y1="92" x2="98" y2="92" stroke="#4a5568" stroke-width="1"/>
<text x="89" y="88" text-anchor="middle" fill="#4a5568" font-size="9">&gt;</text>
<rect x="100" y="65" width="60" height="55" rx="6" fill="#1a1008" stroke="#fb923c" stroke-width="0.5"/>
<text x="130" y="88" text-anchor="middle" fill="#fb923c" font-size="10" font-weight="bold">Spark</text>
<text x="130" y="105" text-anchor="middle" fill="#6b7d96" font-size="7">process</text>
<line x1="160" y1="92" x2="178" y2="92" stroke="#4a5568" stroke-width="1"/>
<text x="169" y="88" text-anchor="middle" fill="#4a5568" font-size="9">&gt;</text>
<rect x="180" y="65" width="72" height="55" rx="6" fill="#081520" stroke="#38bdf8" stroke-width="0.5"/>
<text x="216" y="88" text-anchor="middle" fill="#38bdf8" font-size="9" font-weight="bold">Snowflake</text>
<text x="216" y="105" text-anchor="middle" fill="#6b7d96" font-size="7">warehouse</text>
<line x1="252" y1="92" x2="270" y2="92" stroke="#4a5568" stroke-width="1"/>
<text x="261" y="88" text-anchor="middle" fill="#4a5568" font-size="9">&gt;</text>
<rect x="272" y="65" width="108" height="55" rx="6" fill="#091a14" stroke="#00d4aa" stroke-width="0.5"/>
<text x="326" y="88" text-anchor="middle" fill="#00d4aa" font-size="9" font-weight="bold">Streamlit</text>
<text x="326" y="105" text-anchor="middle" fill="#6b7d96" font-size="7">dashboard</text>
<circle cx="35" cy="38" r="3" fill="#ef4444" opacity="0.6"/>
<circle cx="55" cy="33" r="2" fill="#ef4444" opacity="0.4"/>
<circle cx="78" cy="40" r="2.5" fill="#fb923c" opacity="0.5"/>
<circle cx="100" cy="35" r="2" fill="#fb923c" opacity="0.4"/>
<circle cx="120" cy="42" r="3" fill="#38bdf8" opacity="0.4"/>
<text x="200" y="155" text-anchor="middle" fill="#4a5568" font-size="9">Bronze - Silver - Gold | 10K+ events/min</text>
<text x="200" y="175" text-anchor="middle" fill="#00d4aa" font-size="8">Medallion Architecture | Docker | Airflow</text>
</svg>
