<?xml version="1.0" encoding="UTF-8"?>
<svg xmlns="http://www.w3.org/2000/svg" width="400" height="200" viewBox="0 0 400 200">
<rect width="400" height="200" rx="12" fill="#0c1220"/>
<rect x="20" y="35" width="70" height="32" rx="5" fill="#1a0a0a" stroke="#ef4444" stroke-width="0.5"/>
<text x="55" y="52" text-anchor="middle" fill="#ef4444" font-size="8" font-weight="bold">CMS Medicare</text>
<text x="55" y="63" text-anchor="middle" fill="#6b7d96" font-size="7">API</text>
<rect x="20" y="78" width="70" height="32" rx="5" fill="#1a1008" stroke="#fb923c" stroke-width="0.5"/>
<text x="55" y="95" text-anchor="middle" fill="#fb923c" font-size="8" font-weight="bold">openFDA</text>
<text x="55" y="106" text-anchor="middle" fill="#6b7d96" font-size="7">API</text>
<line x1="90" y1="51" x2="115" y2="72" stroke="#4a5568" stroke-width="0.8"/>
<line x1="90" y1="94" x2="115" y2="72" stroke="#4a5568" stroke-width="0.8"/>
<rect x="115" y="55" width="60" height="35" rx="5" fill="#091a14" stroke="#00d4aa" stroke-width="0.5"/>
<text x="145" y="73" text-anchor="middle" fill="#00d4aa" font-size="9" font-weight="bold">Python</text>
<text x="145" y="86" text-anchor="middle" fill="#6b7d96" font-size="7">ingest</text>
<text x="184" y="70" fill="#4a5568" font-size="9">&gt;</text>
<rect x="195" y="55" width="75" height="35" rx="5" fill="#081520" stroke="#38bdf8" stroke-width="0.5"/>
<text x="232" y="73" text-anchor="middle" fill="#38bdf8" font-size="8" font-weight="bold">Snowflake</text>
<text x="232" y="86" text-anchor="middle" fill="#6b7d96" font-size="7">+ dbt</text>
<text x="279" y="70" fill="#4a5568" font-size="9">&gt;</text>
<rect x="290" y="50" width="90" height="45" rx="5" fill="#091a14" stroke="#00d4aa" stroke-width="0.5"/>
<text x="335" y="70" text-anchor="middle" fill="#00d4aa" font-size="9" font-weight="bold">Dashboard</text>
<text x="335" y="86" text-anchor="middle" fill="#6b7d96" font-size="7">drug safety</text>
<text x="55" y="140" fill="#00d4aa" font-size="8">fact_prescriptions</text>
<text x="55" y="156" fill="#38bdf8" font-size="8">dim_providers</text>
<text x="55" y="172" fill="#fb923c" font-size="8">dim_drugs</text>
<text x="230" y="140" fill="#ef4444" font-size="8">agg_drug_safety</text>
<text x="230" y="156" fill="#6b7d96" font-size="7">adverse events by drug</text>
<text x="230" y="172" fill="#6b7d96" font-size="7">prescription patterns</text>
</svg>
