<?xml version="1.0" encoding="UTF-8"?>
<svg xmlns="http://www.w3.org/2000/svg" width="400" height="200" viewBox="0 0 400 200">
<rect width="400" height="200" rx="12" fill="#0c1220"/>
<rect x="30" y="28" width="75" height="22" rx="4" fill="#0d2618" stroke="#0f6e56" stroke-width="0.5"/>
<text x="67" y="43" text-anchor="middle" fill="#00d4aa" font-size="10">raw_data</text>
<line x1="105" y1="39" x2="125" y2="39" stroke="#4a5568" stroke-width="1"/>
<text x="115" y="35" text-anchor="middle" fill="#4a5568" font-size="8">&gt;</text>
<rect x="128" y="28" width="75" height="22" rx="4" fill="#0d2618" stroke="#0f6e56" stroke-width="0.5"/>
<text x="165" y="43" text-anchor="middle" fill="#00d4aa" font-size="10">staging</text>
<line x1="203" y1="39" x2="223" y2="39" stroke="#4a5568" stroke-width="1"/>
<text x="213" y="35" text-anchor="middle" fill="#4a5568" font-size="8">&gt;</text>
<rect x="226" y="28" width="75" height="22" rx="4" fill="#0a1a2e" stroke="#38bdf8" stroke-width="0.5"/>
<text x="263" y="43" text-anchor="middle" fill="#38bdf8" font-size="10">marts</text>
<rect x="30" y="70" width="120" height="100" rx="6" fill="#091a14" stroke="#0f6e56" stroke-width="0.5"/>
<text x="90" y="88" text-anchor="middle" fill="#00d4aa" font-size="9" font-weight="bold">dim_customers</text>
<text x="90" y="104" text-anchor="middle" fill="#6b7d96" font-size="8">customer_key PK</text>
<text x="90" y="118" text-anchor="middle" fill="#6b7d96" font-size="8">full_name</text>
<text x="90" y="132" text-anchor="middle" fill="#6b7d96" font-size="8">revenue_tier</text>
<text x="90" y="146" text-anchor="middle" fill="#6b7d96" font-size="8">customer_segment</text>
<rect x="170" y="70" width="120" height="100" rx="6" fill="#0a1525" stroke="#38bdf8" stroke-width="0.5"/>
<text x="230" y="88" text-anchor="middle" fill="#38bdf8" font-size="9" font-weight="bold">fact_orders</text>
<text x="230" y="104" text-anchor="middle" fill="#6b7d96" font-size="8">order_fact_key PK</text>
<text x="230" y="118" text-anchor="middle" fill="#6b7d96" font-size="8">customer_key FK</text>
<text x="230" y="132" text-anchor="middle" fill="#6b7d96" font-size="8">net_amount</text>
<text x="230" y="146" text-anchor="middle" fill="#6b7d96" font-size="8">line_profit</text>
<line x1="150" y1="120" x2="170" y2="120" stroke="#00d4aa" stroke-width="1" stroke-dasharray="3 2"/>
<text x="345" y="90" text-anchor="middle" fill="#00d4aa" font-size="20" font-weight="bold">dbt</text>
<text x="345" y="110" text-anchor="middle" fill="#4a5568" font-size="8">Snowflake</text>
<text x="345" y="125" text-anchor="middle" fill="#4a5568" font-size="8">35+ tests</text>
<text x="345" y="140" text-anchor="middle" fill="#4a5568" font-size="8">CI/CD</text>
</svg>
